<svg xmlns="http://www.w3.org/2000/svg" xmlns:xlink="http://www.w3.org/1999/xlink"><symbol id="search" viewBox="0 0 16 16"><path fill-rule="evenodd" d="M2.66 7.33a4.67 4.67 0 1 1 9.34 0 4.67 4.67 0 0 1-9.34 0Zm8.42 4.69a6 6 0 1 1 .94-.94l2.45 2.45a.67.67 0 1 1-.94.94l-2.45-2.45Z"/></symbol><symbol id="cross" viewBox="0 0 16 16"><path d="M12.8 4.14a.67.67 0 1 0-.94-.94L8 7.06 4.14 3.2a.67.67 0 1 0-.94.94L7.06 8 3.2 11.86a.67.67 0 1 0 .94.94L8 8.94l3.86 3.86a.67.67 0 1 0 .94-.94L8.94 8l3.86-3.86Z"/></symbol></svg>