<svg viewBox="0 0 36 46" xmlns="http://www.w3.org/2000/svg"><path d="M36 18.4C36 32.24 18 46 18 46S0 32.24 0 18.4C0 8.24 8.06 0 18 0s18 8.24 18 18.4Z" fill="#10a9a0"/><path d="M18 32a14 14 0 1 0 0-28 14 14 0 0 0 0 28Zm10-14a10 10 0 1 1-20 0 10 10 0 0 1 20 0Zm-9.55-7.1 1.78 3.63a.5.5 0 0 0 .38.27l4 .58a.5.5 0 0 1 .27.85L22 19.05a.5.5 0 0 0-.14.45l.68 3.97a.5.5 0 0 1-.72.53l-3.58-1.88a.5.5 0 0 0-.46 0L14.19 24a.5.5 0 0 1-.72-.53l.68-3.97a.5.5 0 0 0-.14-.45l-2.9-2.82a.5.5 0 0 1 .28-.85l4-.58a.5.5 0 0 0 .38-.27l1.78-3.62a.5.5 0 0 1 .9 0Z" fill="#fff"/></svg>